<?xml version="1.0" encoding="utf-8"?>
<!-- Generator: Adobe Illustrator 18.0.0, SVG Export Plug-In . SVG Version: 6.00 Build 0)  -->
<!DOCTYPE svg PUBLIC "-//W3C//DTD SVG 1.1//EN" "http://www.w3.org/Graphics/SVG/1.1/DTD/svg11.dtd">
<svg version="1.1" id="Layer_1" xmlns="http://www.w3.org/2000/svg" xmlns:xlink="http://www.w3.org/1999/xlink" x="0px" y="0px"
	 viewBox="0 0 157.2 80" enable-background="new 0 0 157.2 80" xml:space="preserve">
<path fill-rule="evenodd" clip-rule="evenodd" fill="#FFFFFF" d="M40.7,72.4c-0.7,0.7-1.8,1.3-2.7,1.3c-0.8,0-1.3-0.4-1.3-1.5
	c0-2,0.9-3.5,1.7-3.5c0.3,0,0.5,0.1,0.5,0.4c0,0.2-0.1,0.6-0.2,0.9c0.2,0.1,0.4,0.2,0.6,0.2c0.5,0,1-0.4,1-1.1
	c0-0.9-0.6-1.4-1.7-1.4c-2.1,0-3.6,2.6-3.6,4.7c0,1.7,1.1,2.5,2.4,2.5c1.2,0,2.5-0.6,3.5-1.7l0,0c0.1,0.8,0.6,1.7,1.7,1.7
	c0.8,0,1.5-0.6,2.1-1.4c0,1.1,0.6,1.4,1.3,1.4c0.5,0,1.1-0.3,1.5-0.7l0,0c0.2,0.4,0.5,0.7,0.9,0.7c0.5,0,1.2-0.5,1.8-1.6
	c0.5-0.9,1.1-2.3,1.6-4.4c0.3,0,0.6,0,0.9-0.1l-0.8,3.9c-0.4,1.9,0.3,2.3,1.3,2.3c0.7,0,1.7-0.6,2.3-1.3l0,0
	c0.3,0.8,0.9,1.3,1.9,1.3c1.7,0,3.6-2.1,3.6-4.2c0,0,0-0.1,0-0.2c0.4-0.2,1.5-1.5,1.8-1.5c0.1,0,0.2,0.1,0.1,0.3l-1.2,5.4
	c0.2,0.1,0.4,0.2,0.7,0.2c0.5,0,1-0.2,1.1-0.9l0.5-2.3c0.6,0,1.2-0.2,1.8-0.3l-0.3,1.4c-0.4,1.8,0.5,2.2,1.2,2.2
	c0.8,0,1.9-0.7,1.9-1.6c0-0.2-0.2-0.4-0.4-0.4c-0.2,0.5-0.5,0.7-0.8,0.7c-0.3,0-0.5-0.3-0.3-1l1-4.6c-0.2-0.1-0.4-0.2-0.7-0.2
	c-0.5,0-1,0.2-1.1,0.9l-0.4,2c-0.5,0.1-1.1,0.1-1.7,0.1l0.5-2.2c0.1-0.5-0.2-0.8-0.7-0.8c-1.3,0-2.2,1.5-3.2,2.1
	c-0.2-0.4-0.6-0.6-1.1-0.6c-0.8,0-1.1,0.7-0.8,1.5c0.2,0.1,0.4,0.2,0.6,0.2c0,0.2,0.1,0.4,0.1,0.6c0,1.3-0.9,2.3-1.6,2.3
	c-0.5,0-0.9-0.5-0.9-1.7c0-1.4,0.8-3.2,2.1-3.2c0.3,0,0.6,0.1,0.9,0.2c0.2,0.1,0.4-0.1,0.5-0.4c-0.4-0.6-1-0.8-1.7-0.8
	c-2.1,0-3.6,2.6-3.6,4.8c0,0.2,0,0.4,0,0.6l0,0c-0.4,0.3-0.9,0.6-1.3,0.6c-0.4,0-0.6-0.3-0.4-1l0.9-4.2c0.1-0.6-2.9-0.7-3.8-0.7
	c-0.8,0-1.6,0.3-1.6,1.2c0,0.2,0.1,0.5,0.3,0.7c0.3-0.3,0.9-0.5,1.7-0.6c-1,3.7-1.7,4.4-2.4,4.8c0-0.3,0.1-0.7,0.2-1.1
	c-0.2-0.1-0.4-0.2-0.6-0.2c-0.5,0-0.9,0.2-1,0.7l0,0l0,0c-0.2,0.3-0.5,0.4-0.7,0.4c-0.3,0-0.5-0.3-0.3-1l1-4.6
	c-0.2-0.1-0.4-0.2-0.7-0.2c-0.3,0-0.7,0.1-1,0.4c-0.3-0.3-0.8-0.5-1.4-0.5C42.3,67.7,40.8,70,40.7,72.4L40.7,72.4L40.7,72.4z
	 M105.6,69c0.1,0,0.2,0.1,0.1,0.3l-1.1,5.4c0.2,0.1,0.4,0.2,0.7,0.2c0.5,0,1-0.2,1.2-0.9l0.9-4c0.4-0.4,0.8-0.7,1.3-0.7
	c0.5,0,0.4,0.4,0.3,0.8l-1,4.6c0.2,0.1,0.4,0.2,0.7,0.2c0.5,0,1-0.2,1.2-0.9l0.9-4.1c0.4-0.4,0.7-0.6,1.2-0.6c0.5,0,0.4,0.4,0.3,0.8
	l-0.6,2.8c-0.3,1.6,0.4,2,1.1,2c0.8,0,1.7-0.5,2.3-1.1c0-0.2-0.1-0.5,0-0.7c-0.4,0.3-0.9,0.6-1.3,0.6c-0.3,0-0.5-0.2-0.4-0.6
	l0.7-3.2c0.4-1.6-0.5-2.1-1.2-2.1c-0.8,0-1.5,0.6-2.1,1.4c0-1-0.6-1.4-1.2-1.4c-0.8,0-1.5,0.6-2.1,1.4l0.1-0.6
	c0.1-0.5-0.2-0.8-0.7-0.8c-1.3,0-2.2,1.5-3.2,2.1c-0.2-0.4-0.6-0.6-1.1-0.6c-0.8,0-1.1,0.7-0.8,1.5c0.2,0.1,0.4,0.2,0.6,0.2
	c0,0.2,0.1,0.4,0.1,0.6c0,1.3-0.9,2.3-1.6,2.3c-0.5,0-0.9-0.5-0.9-1.7c0-1.4,0.8-3.2,2.1-3.2c0.3,0,0.6,0.1,0.9,0.2
	c0.2,0.1,0.4-0.1,0.5-0.4c-0.4-0.6-1-0.8-1.7-0.8c-2.1,0-3.6,2.6-3.6,4.7c0,0,0,0,0,0c0,0.3,0,0.5,0.1,0.8c0.2,1,0.8,1.7,2,1.7
	c1.7,0,3.6-2.1,3.6-4.2c0,0,0-0.1,0-0.2C104.3,70.2,105.4,69,105.6,69L105.6,69z M43.2,73.5c-0.4,0-0.8-0.3-0.8-1
	c0-1.5,0.6-3.7,2.3-3.7c0.2,0,0.4,0,0.7,0.1l-0.8,3.7C44.2,73.1,43.7,73.5,43.2,73.5L43.2,73.5z M75,68.5c0.1-0.5-0.2-0.8-0.7-0.8
	c-0.6,0-1.1,0.3-1.6,0.7c-0.3,0.2-0.2,0.7,0,0.8C72.9,69,73,69,73.1,69c0.1,0,0.2,0.1,0.1,0.3l-1.1,5.4c0.2,0.1,0.4,0.2,0.7,0.2
	c0.5,0,1-0.2,1.2-0.9l0.5-2.4l0.3-0.1c0.2,1.1,0.6,3.3,2,3.3c0.4,0,1.1-0.4,1.6-0.9c0-0.1,0.2-0.8,0.2-1c-0.3,0.3-0.5,0.4-0.8,0.4
	c-1,0-1.4-1.6-1.6-2.4c0.9-0.6,2-1.8,2-2.7c0-0.3-0.3-0.7-0.7-0.7c-0.2,0-0.4,0-0.7,0.2c-0.3,1.5-1.3,2.8-1.9,3l-0.1,0L75,68.5
	L75,68.5z M77,79.9l2.2-10.5c0.1-0.2,0-0.3-0.1-0.3c-0.1,0-0.2,0.1-0.3,0.2c-0.2-0.1-0.3-0.5,0-0.8c0.5-0.4,1-0.7,1.6-0.7
	c0.5,0,0.8,0.2,0.7,0.8l-0.1,0.3c0.5-0.7,1.2-1.1,1.9-1.1c1.2,0,1.8,1,1.8,2.3c0,2.1-1.5,4.9-3.9,4.9c-0.3,0-0.7-0.1-1-0.4l-1,4.6
	c-0.1,0.6-0.6,0.9-1.1,0.9C77.4,80,77.1,80,77,79.9L77,79.9z M82.1,69.1c-0.4,0-0.9,0.3-1.4,0.9l-0.8,3.6c0.3,0.1,0.5,0.2,0.7,0.2
	c1.4,0,2.3-1.9,2.3-3.3C82.9,69.6,82.5,69.1,82.1,69.1L82.1,69.1z M88.6,67.7c-1.9,0-3.5,2.4-3.5,4.9c0,0.9,0.3,2.3,1.7,2.3
	c0.8,0,1.5-0.6,2.1-1.4c0,1.1,0.6,1.4,1.3,1.4c0.7,0,1.7-0.6,2.4-1.3c-0.1-0.4-0.1-0.4-0.2-0.6c-0.4,0.3-0.9,0.6-1.4,0.6
	c-0.4,0-0.6-0.3-0.4-1l1-4.6c-0.2-0.1-0.4-0.2-0.7-0.2c-0.3,0-0.7,0.1-1,0.4C89.7,67.8,89.2,67.7,88.6,67.7L88.6,67.7L88.6,67.7z
	 M89,72.6c-0.4,0.5-1,0.9-1.4,0.9c-0.4,0-0.8-0.3-0.8-1c0-1.5,0.6-3.7,2.3-3.7c0.2,0,0.4,0,0.7,0.1L89,72.6L89,72.6z M98.2,72.4
	c0,0.2,0,0.6,0.1,0.8c-1,1.1-2.3,1.7-3.5,1.7c-1.3,0-2.4-0.8-2.4-2.5c0-2.2,1.5-4.7,3.6-4.7c1.1,0,1.7,0.4,1.7,1.4
	c0,0.8-0.5,1.1-1,1.1c-0.2,0-0.4-0.1-0.6-0.2c0.2-0.3,0.2-0.7,0.2-0.9c0-0.3-0.2-0.4-0.5-0.4c-0.8,0-1.7,1.5-1.7,3.5
	c0,1.1,0.6,1.5,1.3,1.5C96.4,73.7,97.5,73.1,98.2,72.4L98.2,72.4z M115.1,72.2l0.7-2.9c0.1-0.2,0-0.3-0.1-0.3
	c-0.1,0-0.2,0.1-0.3,0.2c-0.2-0.1-0.3-0.5,0-0.8c0.5-0.4,1-0.7,1.6-0.7c0.5,0,0.8,0.2,0.7,0.8l-0.9,4c-0.2,0.9,0.1,1.3,0.5,1.3
	c0.4,0,1.3-0.6,1-2.5c-0.3,0-0.5,0-0.7,0c-0.3-0.7,0-1.3,0.8-1.3c0.3,0,0.5,0.1,0.8,0.2c1-0.5,1.9-1.4,2.4-2.1
	c0.1-0.1,0.4-0.3,0.9-0.3c0.3,0,0.5,0.1,0.7,0.2l-1,4.6c-0.2,0.8,0.1,1,0.4,1c0.5,0,1.1-0.3,1.5-0.7c0.2,0.1,0.2,0.2,0.2,0.3
	c0,0.1,0,0.2-0.1,0.3c-0.7,0.7-1.6,1.4-2.5,1.4c-0.7,0-1.6-0.4-1.3-1.7l0.8-3.9c-0.4,0.5-1,0.9-1.5,1.3c0.1,0.2,0.2,0.5,0.2,0.9
	c0,1.5-1,3.4-3.3,3.4C114.8,74.9,114.8,73.3,115.1,72.2z"/>
<path fill-rule="evenodd" clip-rule="evenodd" fill="#FFFFFF" d="M18.1,46.1c-1,4.8,1.4,6,3.9,6c2.3,0,4.7-1.8,7-3.9l0,0
	c1.1,2.7,3.5,3.9,6.4,3.9c3.2,0,7-1.6,9.8-4.5l0,0l-0.8,3.9c0.5,0.3,1.2,0.5,1.9,0.5c1.5,0,3-0.7,3.5-2.6l2.5-11.7
	c1.1-1.3,2.3-2.1,3.8-2.1c1.4,0,1.3,1.1,1,2.4l-2.9,13.5c0.5,0.3,1.2,0.5,1.9,0.5c1.5,0,3-0.7,3.5-2.6l2.6-12
	c1.1-1.2,2.2-1.9,3.6-1.9c1.4,0,1.3,1.1,1,2.4l-1.7,8.2c-1,4.8,1.2,5.8,3.2,5.8c2.5,0,4.9-1.5,6.8-3.4l0,0c0.4,1.9,1.5,3.4,4.1,3.4
	c2.3,0,4.4-2,6-4.6c-0.2,3.6,1.8,4.6,3.8,4.6c2,0,4.6-1.5,6.5-3.4l0,0c0.4,1.9,1.5,3.4,4.1,3.4c2.3,0,4.4-2,6-4.6
	c-0.2,3.6,1.8,4.6,3.8,4.6c1.3,0,2.5-0.7,3.2-1.7c-1.2,5.1-7.4,6-8.8,4.2c-2.3,2.4-2.4,5.8,1.4,5.8c3.9,0,9.8-4,9.5-13.5
	c-0.4-0.5-0.9-0.7-1.5-0.6c-1.2,2.6-3.4,3-2.6-1l2.9-13.6c-0.5-0.3-1.2-0.5-1.9-0.5c-1.5,0-3,0.7-3.5,2.6l-2.5,11.6
	c-1.1,1.3-2.3,2.1-3.8,2.1c-1.2,0-1.8-0.7-1.4-2.4l2.5-11.7c0.4-1.6-0.5-2.3-2-2.3c-1.7,0-3.2,0.9-4.6,2c-0.8,0.7-0.5,1.9,0,2.3
	c0.4-0.3,0.6-0.5,0.8-0.5c0.4,0,0.6,0.4,0.4,1l-1.9,8.4c-0.2,0.7-0.3,1.5-0.3,2.3c0,0,0,0,0,0c-1,0.9-2.5,1.6-3.8,1.6
	c-1.1,0-1.7-0.7-1.2-3l2.9-13.6C92.4,31.2,91.7,31,91,31c-1.5,0-3,0.7-3.5,2.6L85,45.2c-1.1,1.3-2.3,2.1-3.8,2.1
	c-1.2,0-1.8-0.7-1.4-2.4l2.5-11.7c0.4-1.6-0.5-2.3-2-2.3c-1.7,0-3.2,0.9-4.6,2c-0.8,0.7-0.5,1.9,0,2.3c0.4-0.3,0.6-0.5,0.8-0.5
	c0.4,0,0.6,0.4,0.4,1l-1.9,8.4c-0.2,0.7-0.3,1.5-0.3,2.4l0,0c0,0,0,0,0,0l0,0c0,0,0,0,0,0c-1,0.9-2.5,1.6-3.8,1.6
	c-0.8,0-1.4-0.5-1.1-1.7l2-9.5c1.1-4.8-1.6-6-3.5-6c-2.4,0-4.4,1.8-6.2,4.2c0.1-2.9-1.8-4.2-3.5-4.2c-2.3,0-4.4,1.7-6.1,4.1l0.4-1.9
	c0.4-1.6-0.5-2.3-2-2.3c-1.7,0-3.2,0.9-4.6,2c-0.8,0.7-0.5,1.9,0,2.3c0.4-0.3,0.6-0.5,0.8-0.5c0.4,0,0.6,0.4,0.4,1L45.9,44
	c0,0,0,0,0,0l0,0c-1.8,2.3-5.5,4.4-8.5,4.4c-1.9,0-3.4-0.8-3.8-3c7.9-4.4,9.8-7.2,9.8-10.7c0-1.9-0.9-3.9-4.7-3.9
	c-6.8,0-10.3,8.6-10.3,13.9c0,0.6,0,1.1,0.1,1.7l0,0c-1,0.8-2.7,1.8-3.9,1.8c-1.1,0-1.9-0.7-1.4-3l4.7-22c0.9,0,1.4-0.8,1.4-1.6
	c0-0.4-0.2-0.8-0.6-1.1c-2.8,1-8.2-0.7-13.6-0.7c-3.7,0-6.9,1.2-6.9,5.8c0,2.1,1.4,4.3,5.2,3.3c-0.5-0.7-0.6-1.4-0.6-2.1
	c0-2.6,1.6-4.4,4.9-4.4h0.4c-6,20.1-10.2,25.1-13.4,26.4v-0.4c0-0.9,0.2-2.6,0.9-4.2c-0.6-0.5-1.3-0.7-2.1-0.7C1.6,43.3,0,44,0,46.4
	c0,3.7,1.5,5.6,3.5,5.6c5.4,0,10.1-7.2,16.6-29.7c0.9,0.1,1.9,0.2,2.8,0.3L18.1,46.1L18.1,46.1z M133.9,46.8c0-0.1,0-0.1,0.1-0.2
	c0.3-1.3,1.5-1.7,2.8-1.7c0.5,0,1.2,0.2,1.7,0.6c-0.5,1.2-0.7,2.4-0.7,3.3c1.5-0.9,2.9-2,4.6-5.7c-2.6-0.7-3.9-2.8-3.9-5.1
	c0-5,4.7-7.2,8.6-7.2c3.7,0,6.6,2,5.6,6.9l-1.6,7.4c-0.5,2.3,0.2,3,1.2,3c1.5,0,3.3-1,4.3-2.1c0.5,0.2,0.7,0.6,0.7,1
	c0,0.3-0.1,0.6-0.4,0.9c-1.9,2.2-4.8,4.1-7.1,4.1c-2.1,0-4.9-1.2-3.8-6.5l0.5-2.3h-1.9c-1.5,3.3-4.5,8.7-7.7,8.8c-1.1,0-2-0.7-2.5-2
	l0,0c-1.2,1.3-3,2-4.5,2c-2,0-4-1-3.8-4.6c-1.6,2.7-3.7,4.6-6,4.6c-4.6,0-4.6-4.8-3.9-7.9l1.9-8.4c0.2-0.7,0-1-0.4-1
	c-0.2,0-0.5,0.2-0.8,0.5c-0.5-0.3-0.8-1.6,0-2.3c1.4-1.1,2.9-2,4.6-2c1.5,0,2.3,0.7,2,2.3l-2.5,11.7c-0.4,1.7,0.2,2.4,1.4,2.4
	c1.4,0,2.7-0.8,3.8-2.1l2.5-11.6c0.4-1.9,2-2.6,3.5-2.6c0.7,0,1.4,0.2,1.9,0.5L131,45.1c-0.5,2.1,0.1,3,0.9,3
	C132.5,48.1,133.3,47.8,133.9,46.8L133.9,46.8z M95.1,46.6L95.1,46.6L95.1,46.6L95.1,46.6L95.1,46.6z M39,34c0.7,0,1.2,0.7,1.2,1.6
	c0,2.7-2.7,5.6-6.7,8.1C33.6,40.8,34.9,34,39,34L39,34z M143.1,37.9c0,1.6,0.6,3.1,2,3.1h1.7l1-4.7c0.5-2.3-0.3-3.1-1.4-3.1
	C144.4,33.2,143.2,35.7,143.1,37.9z"/>
<g>
	<path fill-rule="evenodd" clip-rule="evenodd" fill="#FFFFFF" d="M77.2,10.9c-1.8,2.5-2.2,4.4-2.9,4.2c-0.5-0.1-0.3-0.6-1.5-0.8
		c-1.2-0.3-2.5,0.7-2.8,2c-0.3,1.2,0.2,2.7,1.5,3.1c1.3,0.5,2.7-0.3,3.2-1.5c0.6-1.4,1-3.3,3.1-4.9l1.6-1.2l5.6-7.8
		c0.6-1,1-2.4,0.2-3.6L77.2,10.9L77.2,10.9z M71.2,15.6c1.1-1.1,3-0.4,3,1c0.1,1.3-1.5,2.5-2.7,1.8C70.5,17.8,70.5,16.3,71.2,15.6z"
		/>
	<path fill-rule="evenodd" clip-rule="evenodd" fill="#FFFFFF" d="M80,10.8c1.8,2.5,2.2,4.4,2.9,4.2c0.5-0.1,0.3-0.6,1.5-0.8
		c1.2-0.3,2.5,0.7,2.8,2c0.3,1.2-0.2,2.7-1.5,3.1c-1.3,0.5-2.7-0.3-3.2-1.5c-0.6-1.4-1-3.3-3.1-4.9l-1.6-1.2l-5.5-7.9
		c-0.6-1-1-2.4-0.2-3.6L80,10.8L80,10.8z M86,15.6c-1.1-1.1-3-0.4-3,1c-0.1,1.3,1.5,2.5,2.7,1.8C86.7,17.8,86.7,16.3,86,15.6z"/>
</g>
<path fill-rule="evenodd" clip-rule="evenodd" fill="#FFFFFF" d="M82.5,11.6c0.1,0.6,0.6,1,1.4,1c1.1,0,1.6-0.9,1.6-1.9
	c0-1-0.5-1.7-1.5-1.7c-0.8,0-1.4,0.5-1.4,1.3c0,0.8,0.5,1.1,1.3,1.1c0.3,0,0.5-0.1,0.7-0.3c-0.1,0.4-0.1,0.8-0.6,0.8
	c-0.3,0-0.4-0.1-0.5-0.3H82.5L82.5,11.6z M84,9.8c0.3,0,0.5,0.2,0.5,0.5c0,0.3-0.2,0.5-0.5,0.5c-0.3,0-0.5-0.2-0.5-0.5
	C83.5,10,83.7,9.8,84,9.8L84,9.8z M88.2,9h-0.8c0,0.5-0.4,0.8-0.9,0.8h-0.1v0.7h0.8v2h1.1V9z"/>
<path fill-rule="evenodd" clip-rule="evenodd" fill="#FFFFFF" d="M70.9,9H70c0,0.5-0.4,0.8-0.9,0.8H69v0.7h0.8v2h1.1V9L70.9,9z
	 M72,11.6c0.1,0.6,0.6,1,1.4,1c1.1,0,1.6-0.9,1.6-1.9c0-1-0.5-1.7-1.5-1.7C72.6,9,72,9.5,72,10.3c0,0.8,0.5,1.1,1.3,1.1
	c0.3,0,0.5-0.1,0.7-0.3c-0.1,0.4-0.1,0.8-0.6,0.8c-0.3,0-0.4-0.1-0.5-0.3H72L72,11.6z M73.4,9.8c0.3,0,0.5,0.2,0.5,0.5
	c0,0.3-0.2,0.5-0.5,0.5c-0.3,0-0.5-0.2-0.5-0.5C72.9,10,73.1,9.8,73.4,9.8z"/>
</svg>
