<?xml version="1.0" encoding="utf-8"?>
<!-- Generator: Adobe Illustrator 18.0.0, SVG Export Plug-In . SVG Version: 6.00 Build 0)  -->
<!DOCTYPE svg PUBLIC "-//W3C//DTD SVG 1.1//EN" "http://www.w3.org/Graphics/SVG/1.1/DTD/svg11.dtd">
<svg version="1.1" id="Layer_1" xmlns="http://www.w3.org/2000/svg" xmlns:xlink="http://www.w3.org/1999/xlink" x="0px" y="0px"
	 viewBox="0 23.8 64 20.3" enable-background="new 0 23.8 64 20.3" xml:space="preserve">
<path fill="#FFFFFF" d="M4.6,41c-0.3,0.3-0.7,0.5-1.1,0.5c-0.3,0-0.5-0.2-0.5-0.6c0-0.8,0.4-1.4,0.7-1.4c0.1,0,0.2,0,0.2,0.2
	c0,0.1,0,0.2-0.1,0.4c0.1,0,0.2,0.1,0.2,0.1c0.2,0,0.4-0.2,0.4-0.4c0-0.4-0.2-0.6-0.7-0.6c-0.9,0-1.5,1.1-1.5,1.9c0,0.7,0.4,1,1,1
	c0.5,0,1-0.2,1.4-0.7l0,0c0,0.3,0.2,0.7,0.7,0.7c0.3,0,0.6-0.2,0.9-0.6c0,0.4,0.2,0.6,0.5,0.6c0.2,0,0.4-0.1,0.6-0.3l0,0
	C7.5,41.9,7.6,42,7.8,42c0.2,0,0.5-0.2,0.7-0.7c0.2-0.4,0.4-0.9,0.7-1.8c0.1,0,0.2,0,0.4,0l-0.3,1.6C9,41.9,9.3,42,9.7,42
	c0.3,0,0.7-0.2,0.9-0.5l0,0c0.1,0.3,0.4,0.5,0.8,0.5c0.7,0,1.5-0.9,1.5-1.7c0,0,0,0,0-0.1c0.2-0.1,0.6-0.6,0.7-0.6c0,0,0.1,0,0,0.1
	L13.2,42c0.1,0,0.2,0.1,0.3,0.1c0.2,0,0.4-0.1,0.4-0.4l0.2-0.9c0.2,0,0.5-0.1,0.7-0.1l-0.1,0.6c-0.2,0.7,0.2,0.9,0.5,0.9
	c0.3,0,0.8-0.3,0.8-0.7c0-0.1-0.1-0.2-0.2-0.2c-0.1,0.2-0.2,0.3-0.3,0.3c-0.1,0-0.2-0.1-0.1-0.4l0.4-1.9c-0.1,0-0.2-0.1-0.3-0.1
	c-0.2,0-0.4,0.1-0.4,0.4l-0.2,0.8c-0.2,0-0.4,0-0.7,0l0.2-0.9c0-0.2-0.1-0.3-0.3-0.3c-0.5,0-0.9,0.6-1.3,0.9
	c-0.1-0.2-0.2-0.2-0.4-0.2c-0.3,0-0.4,0.3-0.3,0.6c0.1,0,0.2,0.1,0.2,0.1c0,0.1,0,0.2,0,0.2c0,0.5-0.4,0.9-0.7,0.9
	c-0.2,0-0.4-0.2-0.4-0.7c0-0.6,0.3-1.3,0.9-1.3c0.1,0,0.2,0,0.4,0.1c0.1,0,0.2,0,0.2-0.2c-0.2-0.2-0.4-0.3-0.7-0.3
	c-0.9,0-1.5,1.1-1.5,2c0,0.1,0,0.2,0,0.2l0,0c-0.2,0.1-0.4,0.2-0.5,0.2c-0.2,0-0.2-0.1-0.2-0.4l0.4-1.7c0-0.2-1.2-0.3-1.5-0.3
	c-0.3,0-0.7,0.1-0.7,0.5c0,0.1,0,0.2,0.1,0.3c0.1-0.1,0.4-0.2,0.7-0.2c-0.4,1.5-0.7,1.8-1,2c0-0.1,0-0.3,0.1-0.4
	c-0.1,0-0.2-0.1-0.2-0.1c-0.2,0-0.4,0.1-0.4,0.3l0,0l0,0c-0.1,0.1-0.2,0.2-0.3,0.2c-0.1,0-0.2-0.1-0.1-0.4l0.4-1.9
	c-0.1,0-0.2-0.1-0.3-0.1s-0.3,0-0.4,0.2c-0.1-0.1-0.3-0.2-0.6-0.2C5.3,39.1,4.7,40,4.6,41L4.6,41L4.6,41z M31,39.6c0,0,0.1,0,0,0.1
	l-0.4,2.2c0.1,0,0.2,0.1,0.3,0.1c0.2,0,0.4-0.1,0.5-0.4l0.4-1.6c0.2-0.2,0.3-0.3,0.5-0.3c0.2,0,0.2,0.2,0.1,0.3L32,41.9
	c0.1,0,0.2,0.1,0.3,0.1c0.2,0,0.4-0.1,0.5-0.4l0.4-1.7c0.2-0.2,0.3-0.2,0.5-0.2c0.2,0,0.2,0.2,0.1,0.3l-0.2,1.1
	C33.4,41.8,33.7,42,34,42c0.3,0,0.7-0.2,0.9-0.4c0-0.1,0-0.2,0-0.3c-0.2,0.1-0.4,0.2-0.5,0.2c-0.1,0-0.2-0.1-0.2-0.2l0.3-1.3
	c0.2-0.7-0.2-0.9-0.5-0.9c-0.3,0-0.6,0.2-0.9,0.6c0-0.4-0.2-0.6-0.5-0.6c-0.3,0-0.6,0.2-0.9,0.6l0-0.2c0-0.2-0.1-0.3-0.3-0.3
	c-0.5,0-0.9,0.6-1.3,0.9c-0.1-0.2-0.2-0.2-0.4-0.2c-0.3,0-0.4,0.3-0.3,0.6c0.1,0,0.2,0.1,0.2,0.1c0,0.1,0,0.2,0,0.2
	c0,0.5-0.4,0.9-0.7,0.9c-0.2,0-0.4-0.2-0.4-0.7c0-0.6,0.3-1.3,0.9-1.3c0.1,0,0.2,0,0.4,0.1c0.1,0,0.2,0,0.2-0.2
	c-0.2-0.2-0.4-0.3-0.7-0.3c-0.9,0-1.5,1.1-1.5,1.9l0,0c0,0.1,0,0.2,0,0.3c0.1,0.4,0.3,0.7,0.8,0.7c0.7,0,1.5-0.9,1.5-1.7
	c0,0,0,0,0-0.1C30.5,40.1,31,39.6,31,39.6L31,39.6z M5.6,41.4c-0.2,0-0.3-0.1-0.3-0.4c0-0.6,0.2-1.5,0.9-1.5c0.1,0,0.2,0,0.3,0
	l-0.3,1.5C6,41.3,5.8,41.4,5.6,41.4L5.6,41.4z M18.6,39.4c0-0.2-0.1-0.3-0.3-0.3c-0.2,0-0.4,0.1-0.7,0.3c-0.1,0.1-0.1,0.3,0,0.3
	c0.1-0.1,0.1-0.1,0.2-0.1c0,0,0.1,0,0,0.1l-0.4,2.2c0.1,0,0.2,0.1,0.3,0.1c0.2,0,0.4-0.1,0.5-0.4l0.2-1l0.1,0
	c0.1,0.4,0.2,1.3,0.8,1.3c0.2,0,0.4-0.2,0.7-0.4c0,0,0.1-0.3,0.1-0.4c-0.1,0.1-0.2,0.2-0.3,0.2c-0.4,0-0.6-0.7-0.7-1
	c0.4-0.2,0.8-0.7,0.8-1.1c0-0.1-0.1-0.3-0.3-0.3c-0.1,0-0.2,0-0.3,0.1c-0.1,0.6-0.5,1.1-0.8,1.2h0L18.6,39.4L18.6,39.4z M19.4,44
	l0.9-4.3c0-0.1,0-0.1,0-0.1s-0.1,0-0.1,0.1c-0.1,0-0.1-0.2,0-0.3c0.2-0.2,0.4-0.3,0.7-0.3c0.2,0,0.3,0.1,0.3,0.3l0,0.1
	c0.2-0.3,0.5-0.4,0.8-0.4c0.5,0,0.7,0.4,0.7,0.9c0,0.9-0.6,2-1.6,2c-0.1,0-0.3,0-0.4-0.2l-0.4,1.9c0,0.2-0.2,0.4-0.4,0.4
	C19.6,44.1,19.4,44.1,19.4,44L19.4,44z M21.5,39.6c-0.2,0-0.4,0.1-0.6,0.4l-0.3,1.5c0.1,0,0.2,0.1,0.3,0.1c0.6,0,0.9-0.8,0.9-1.3
	C21.8,39.8,21.6,39.6,21.5,39.6L21.5,39.6z M24.1,39.1c-0.8,0-1.4,1-1.4,2c0,0.4,0.1,0.9,0.7,0.9c0.3,0,0.6-0.2,0.9-0.6
	c0,0.4,0.2,0.6,0.5,0.6c0.3,0,0.7-0.2,1-0.5c0-0.2,0-0.2-0.1-0.2c-0.2,0.1-0.4,0.2-0.6,0.2c-0.2,0-0.2-0.1-0.2-0.4l0.4-1.9
	c-0.1,0-0.2-0.1-0.3-0.1c-0.1,0-0.3,0-0.4,0.2C24.6,39.1,24.4,39.1,24.1,39.1L24.1,39.1L24.1,39.1z M24.3,41.1
	c-0.2,0.2-0.4,0.4-0.6,0.4c-0.2,0-0.3-0.1-0.3-0.4c0-0.6,0.2-1.5,0.9-1.5c0.1,0,0.2,0,0.3,0L24.3,41.1L24.3,41.1z M28,41
	c0,0.1,0,0.2,0,0.3c-0.4,0.4-0.9,0.7-1.4,0.7c-0.5,0-1-0.3-1-1c0-0.9,0.6-1.9,1.5-1.9c0.4,0,0.7,0.2,0.7,0.6c0,0.3-0.2,0.4-0.4,0.4
	c-0.1,0-0.2,0-0.2-0.1c0.1-0.1,0.1-0.3,0.1-0.4c0-0.1-0.1-0.2-0.2-0.2c-0.3,0-0.7,0.6-0.7,1.4c0,0.4,0.2,0.6,0.5,0.6
	C27.3,41.5,27.7,41.3,28,41L28,41z M34.9,40.9l0.3-1.2c0-0.1,0-0.1,0-0.1c0,0-0.1,0-0.1,0.1c-0.1,0-0.1-0.2,0-0.3
	c0.2-0.2,0.4-0.3,0.7-0.3c0.2,0,0.3,0.1,0.3,0.3L35.6,41c-0.1,0.4,0,0.5,0.2,0.5c0.2,0,0.5-0.2,0.4-1c-0.1,0-0.2,0-0.3,0
	c-0.1-0.3,0-0.5,0.3-0.5c0.1,0,0.2,0,0.3,0.1c0.4-0.2,0.8-0.6,1-0.9c0,0,0.2-0.1,0.4-0.1c0.1,0,0.2,0,0.3,0.1l-0.4,1.9
	c-0.1,0.3,0,0.4,0.2,0.4c0.2,0,0.4-0.1,0.6-0.3c0.1,0,0.1,0.1,0.1,0.1s0,0.1,0,0.1c-0.3,0.3-0.7,0.6-1,0.6c-0.3,0-0.7-0.2-0.5-0.7
	l0.3-1.6c-0.2,0.2-0.4,0.4-0.6,0.5c0,0.1,0.1,0.2,0.1,0.4c0,0.6-0.4,1.4-1.3,1.4C34.8,42,34.8,41.3,34.9,40.9z"/>
<path fill="#FFFFFF" d="M7.4,34.5c-0.4,2,0.6,2.4,1.6,2.4c0.9,0,1.9-0.7,2.8-1.6l0,0c0.4,1.1,1.4,1.6,2.6,1.6c1.3,0,2.8-0.7,4-1.8
	l0,0l-0.3,1.6c0.2,0.1,0.5,0.2,0.8,0.2c0.6,0,1.2-0.3,1.4-1.1l1-4.8c0.4-0.5,0.9-0.9,1.5-0.9c0.6,0,0.5,0.4,0.4,1l-1.2,5.5
	c0.2,0.1,0.5,0.2,0.8,0.2c0.6,0,1.2-0.3,1.4-1.1l1.1-4.9c0.4-0.5,0.9-0.8,1.5-0.8s0.5,0.4,0.4,1l-0.7,3.3c-0.4,2,0.5,2.4,1.3,2.4
	c1,0,2-0.6,2.8-1.4l0,0c0.2,0.8,0.6,1.4,1.7,1.4c0.9,0,1.8-0.8,2.4-1.9c-0.1,1.5,0.7,1.9,1.5,1.9c0.8,0,1.9-0.6,2.6-1.4l0,0
	c0.2,0.8,0.6,1.4,1.7,1.4c0.9,0,1.8-0.8,2.4-1.9c-0.1,1.5,0.7,1.9,1.5,1.9c0.5,0,1-0.3,1.3-0.7c-0.5,2.1-3,2.4-3.6,1.7
	c-0.9,1-1,2.4,0.6,2.4c1.6,0,4-1.6,3.9-5.5c-0.2-0.2-0.4-0.3-0.6-0.2c-0.5,1.1-1.4,1.2-1.1-0.4l1.2-5.5c-0.2-0.1-0.5-0.2-0.8-0.2
	c-0.6,0-1.2,0.3-1.4,1.1l-1,4.7c-0.4,0.5-0.9,0.9-1.5,0.9c-0.5,0-0.7-0.3-0.6-1l1-4.8c0.2-0.7-0.2-0.9-0.8-0.9
	c-0.7,0-1.3,0.4-1.9,0.8c-0.3,0.3-0.2,0.8,0,0.9c0.2-0.1,0.2-0.2,0.3-0.2c0.2,0,0.2,0.2,0.2,0.4l-0.8,3.4c-0.1,0.3-0.1,0.6-0.1,0.9
	l0,0c-0.4,0.4-1,0.7-1.5,0.7c-0.4,0-0.7-0.3-0.5-1.2l1.2-5.5c-0.3-0.1-0.6-0.2-0.9-0.2c-0.6,0-1.2,0.3-1.4,1.1l-1,4.7
	c-0.4,0.5-0.9,0.9-1.5,0.9c-0.5,0-0.7-0.3-0.6-1l1-4.8c0.2-0.7-0.2-0.9-0.8-0.9c-0.7,0-1.3,0.4-1.9,0.8c-0.3,0.3-0.2,0.8,0,0.9
	c0.2-0.1,0.2-0.2,0.3-0.2c0.2,0,0.2,0.2,0.2,0.4l-0.8,3.4c-0.1,0.3-0.1,0.6-0.1,1l0,0l0,0l0,0l0,0c-0.4,0.4-1,0.7-1.5,0.7
	c-0.3,0-0.6-0.2-0.4-0.7l0.8-3.9c0.4-2-0.7-2.4-1.4-2.4c-1,0-1.8,0.7-2.5,1.7c0-1.2-0.7-1.7-1.4-1.7c-0.9,0-1.8,0.7-2.5,1.7l0.2-0.8
	c0.2-0.7-0.2-0.9-0.8-0.9c-0.7,0-1.3,0.4-1.9,0.8c-0.3,0.3-0.2,0.8,0,0.9c0.2-0.1,0.2-0.2,0.3-0.2c0.2,0,0.2,0.2,0.2,0.4l-0.7,3.4
	l0,0l0,0c-0.7,0.9-2.2,1.8-3.5,1.8c-0.8,0-1.4-0.3-1.5-1.2c3.2-1.8,4-2.9,4-4.4c0-0.8-0.4-1.6-1.9-1.6c-2.8,0-4.2,3.5-4.2,5.7
	c0,0.2,0,0.4,0,0.7l0,0c-0.4,0.3-1.1,0.7-1.6,0.7c-0.4,0-0.8-0.3-0.6-1.2l1.9-9c0.4,0,0.6-0.3,0.6-0.7c0-0.2-0.1-0.3-0.2-0.4
	c-1.1,0.4-3.3-0.3-5.5-0.3c-1.5,0-2.8,0.5-2.8,2.4c0,0.9,0.6,1.8,2.1,1.3c-0.2-0.3-0.2-0.6-0.2-0.9c0-1.1,0.7-1.8,2-1.8h0.2
	C4.9,33,3.2,35.1,1.9,35.6v-0.2c0-0.4,0.1-1.1,0.4-1.7c-0.2-0.2-0.5-0.3-0.9-0.3C0.7,33.3,0,33.6,0,34.6c0,1.5,0.6,2.3,1.4,2.3
	c2.2,0,4.1-2.9,6.8-12.1c0.4,0,0.8,0.1,1.1,0.1L7.4,34.5L7.4,34.5z M54.5,34.8C54.5,34.7,54.5,34.7,54.5,34.8
	c0.2-0.6,0.7-0.8,1.2-0.8c0.2,0,0.5,0.1,0.7,0.2c-0.2,0.5-0.3,1-0.3,1.3c0.6-0.4,1.2-0.8,1.9-2.3c-1.1-0.3-1.6-1.1-1.6-2.1
	c0-2,1.9-2.9,3.5-2.9c1.5,0,2.7,0.8,2.3,2.8l-0.7,3c-0.2,0.9,0.1,1.2,0.5,1.2c0.6,0,1.3-0.4,1.8-0.9c0.2,0.1,0.3,0.2,0.3,0.4
	c0,0.1,0,0.2-0.2,0.4c-0.8,0.9-2,1.7-2.9,1.7c-0.9,0-2-0.5-1.5-2.6l0.2-0.9h-0.8c-0.6,1.3-1.8,3.5-3.1,3.6c-0.4,0-0.8-0.3-1-0.8l0,0
	c-0.5,0.5-1.2,0.8-1.8,0.8c-0.8,0-1.6-0.4-1.5-1.9c-0.7,1.1-1.5,1.9-2.4,1.9c-1.9,0-1.9-2-1.6-3.2l0.8-3.4c0.1-0.3,0-0.4-0.2-0.4
	c-0.1,0-0.2,0.1-0.3,0.2c-0.2-0.1-0.3-0.7,0-0.9c0.6-0.4,1.2-0.8,1.9-0.8c0.6,0,0.9,0.3,0.8,0.9l-1,4.8c-0.2,0.7,0.1,1,0.6,1
	c0.6,0,1.1-0.3,1.5-0.9l1-4.7c0.2-0.8,0.8-1.1,1.4-1.1c0.3,0,0.6,0.1,0.8,0.2l-1.3,5.5c-0.2,0.9,0,1.2,0.4,1.2
	C53.9,35.3,54.3,35.2,54.5,34.8L54.5,34.8z M38.7,34.7L38.7,34.7L38.7,34.7L38.7,34.7L38.7,34.7z M15.9,29.6c0.3,0,0.5,0.3,0.5,0.7
	c0,1.1-1.1,2.3-2.7,3.3C13.7,32.3,14.2,29.6,15.9,29.6L15.9,29.6z M58.3,31.1c0,0.7,0.2,1.3,0.8,1.3h0.7l0.4-1.9
	c0.2-0.9-0.1-1.3-0.6-1.3C58.8,29.2,58.3,30.2,58.3,31.1z"/>
</svg>
